<?xml version="1.0" encoding="UTF-8"?>
<!DOCTYPE svg PUBLIC "-//W3C//DTD SVG 1.1//EN" "http://www.w3.org/Graphics/SVG/1.1/DTD/svg11.dtd">
<!-- Creator: CorelDRAW 2020 (64-Bit) -->
<svg xmlns="http://www.w3.org/2000/svg" xml:space="preserve" width="3.5in" height="2in" version="1.1" style="shape-rendering:geometricPrecision; text-rendering:geometricPrecision; image-rendering:optimizeQuality; fill-rule:evenodd; clip-rule:evenodd"
viewBox="0 0 3500 2000"
 xmlns:xlink="http://www.w3.org/1999/xlink"
 xmlns:xodm="http://www.corel.com/coreldraw/odm/2003">
 <defs>
  <style type="text/css">
   <![CDATA[
    .str0 {stroke:#0F5AA0;stroke-width:6.94;stroke-miterlimit:2.61313}
    .fil1 {fill:none}
    .fil0 {fill:#0F5AA0}
   ]]>
  </style>
 </defs>
 <g id="Layer_x0020_1">
  <metadata id="CorelCorpID_0Corel-Layer"/>
  <g>
   <path class="fil0" d="M1146.23 432.08c102.04,-104.79 243.89,-197.13 412.06,-235.33 168.17,-38.19 362.66,-22.24 527.84,45.72 165.19,67.96 301.07,187.91 387.93,319.23 86.86,131.32 124.69,274.01 135.9,402.43 11.2,128.43 -4.22,242.59 -47.61,359.21 -43.39,116.62 -114.73,235.69 -208.55,326.9 -93.82,91.2 -210.12,154.54 -334.59,193.6 -124.46,39.07 -257.11,53.86 -388.31,33.03 -131.2,-20.83 -260.98,-77.3 -348.94,-132.22 -87.96,-54.92 -134.12,-108.3 -180.28,-161.68 36.02,17.22 72.04,34.44 117.52,40.44 45.48,5.99 100.44,0.76 137.18,-7.2 36.74,-7.96 55.25,-18.66 73.77,-29.35 76.2,38.52 152.42,77.04 251.35,88.06 98.93,11.02 220.6,-5.46 332.31,-52.99 111.71,-47.52 213.47,-126.09 283.1,-232.29 69.63,-106.2 107.13,-240.04 105.65,-373 -1.48,-132.96 -41.94,-265.05 -133.31,-381.62 -91.37,-116.57 -233.63,-217.64 -397.57,-247.73 -163.93,-30.09 -349.54,10.79 -484.33,101.07 -134.79,90.28 -218.78,229.95 -256.57,355 -37.8,125.05 -29.42,235.46 -13.01,315.7 16.41,80.23 40.86,130.28 66.72,173.86 25.85,43.58 53.13,80.7 91.93,86.3 38.8,5.6 89.12,-20.31 137.35,-84.8 48.24,-64.48 94.39,-167.54 142.35,-287.87 47.96,-120.32 97.73,-257.91 147.5,-395.51 -70.65,10.56 -141.3,21.11 -174.07,63.8 -32.78,42.69 -27.69,117.5 -22.59,192.31l-191.39 131.94c-0.28,-65.14 -0.55,-130.28 12.62,-199.07 13.17,-68.8 39.79,-141.25 83.26,-193.24 43.47,-51.99 103.8,-83.52 190.61,-111.94 86.8,-28.43 200.09,-53.75 313.38,-79.07 41.2,290.09 82.41,580.19 108.7,726.74 26.3,146.55 37.7,149.56 64.11,146.09 26.41,-3.47 67.84,-13.43 109.27,-23.39l-4.72 143.19 -307.78 80.7 -49.03 -305.14 -227.92 16.94c-27.64,61.94 -55.28,123.89 -93.68,182.13 -38.4,58.24 -87.57,112.78 -152.15,137.59 -64.58,24.81 -144.58,19.9 -216.27,-15.91 -71.69,-35.81 -135.07,-102.53 -175.58,-187.76 -40.51,-85.23 -58.15,-188.98 -62.78,-289.67 -4.63,-100.69 3.75,-198.33 39.05,-305.76 35.3,-107.43 97.52,-224.65 199.56,-329.44zm629.1 382.11c0,0 -101.05,270.99 -101.05,270.99 0,0 123.93,-7.86 133.93,-7.86l-32.89 -263.13z"/>
   <path id="1" class="fil1 str0" d="M1146.23 432.08c102.04,-104.79 243.89,-197.13 412.06,-235.33 168.17,-38.19 362.66,-22.24 527.84,45.72 165.19,67.96 301.07,187.91 387.93,319.23 86.86,131.32 124.69,274.01 135.9,402.43 11.2,128.43 -4.22,242.59 -47.61,359.21 -43.39,116.62 -114.73,235.69 -208.55,326.9 -93.82,91.2 -210.12,154.54 -334.59,193.6 -124.46,39.07 -257.11,53.86 -388.31,33.03 -131.2,-20.83 -260.98,-77.3 -348.94,-132.22 -87.96,-54.92 -134.12,-108.3 -180.28,-161.68 36.02,17.22 72.04,34.44 117.52,40.44 45.48,5.99 100.44,0.76 137.18,-7.2 36.74,-7.96 55.25,-18.66 73.77,-29.35 76.2,38.52 152.42,77.04 251.35,88.06 98.93,11.02 220.6,-5.46 332.31,-52.99 111.71,-47.52 213.47,-126.09 283.1,-232.29 69.63,-106.2 107.13,-240.04 105.65,-373 -1.48,-132.96 -41.94,-265.05 -133.31,-381.62 -91.37,-116.57 -233.63,-217.64 -397.57,-247.73 -163.93,-30.09 -349.54,10.79 -484.33,101.07 -134.79,90.28 -218.78,229.95 -256.57,355 -37.8,125.05 -29.42,235.46 -13.01,315.7 16.41,80.23 40.86,130.28 66.72,173.86 25.85,43.58 53.13,80.7 91.93,86.3 38.8,5.6 89.12,-20.31 137.35,-84.8 48.24,-64.48 94.39,-167.54 142.35,-287.87 47.96,-120.32 97.73,-257.91 147.5,-395.51 -70.65,10.56 -141.3,21.11 -174.07,63.8 -32.78,42.69 -27.69,117.5 -22.59,192.31l-191.39 131.94c-0.28,-65.14 -0.55,-130.28 12.62,-199.07 13.17,-68.8 39.79,-141.25 83.26,-193.24 43.47,-51.99 103.8,-83.52 190.61,-111.94 86.8,-28.43 200.09,-53.75 313.38,-79.07 41.2,290.09 82.41,580.19 108.7,726.74 26.3,146.55 37.7,149.56 64.11,146.09 26.41,-3.47 67.84,-13.43 109.27,-23.39l-4.72 143.19 -307.78 80.7 -49.03 -305.14 -227.92 16.94c-27.64,61.94 -55.28,123.89 -93.68,182.13 -38.4,58.24 -87.57,112.78 -152.15,137.59 -64.58,24.81 -144.58,19.9 -216.27,-15.91 -71.69,-35.81 -135.07,-102.53 -175.58,-187.76 -40.51,-85.23 -58.15,-188.98 -62.78,-289.67 -4.63,-100.69 3.75,-198.33 39.05,-305.76 35.3,-107.43 97.52,-224.65 199.56,-329.44zm629.1 382.11c0,0 -101.05,270.99 -101.05,270.99 0,0 123.93,-7.86 133.93,-7.86"/>
  </g>
 </g>
</svg>
